<svg width="48" height="48" viewBox="0 0 48 48" xmlns="http://www.w3.org/2000/svg">
    <path
        d="M23.885 0C10.679 0 0 10.73 0 24c0 13.236 10.68 24 23.885 24 13.172 0 23.884-10.73 23.884-24-.033-13.27-10.712-24-23.884-24zM38.37 31.549v-7.414c0-1.794-.843-2.674-2.594-2.674-1.786 0-3.302 1.016-3.302 3.791v6.33h-3.84V20.379H28.6l-4.851 11.17h-4.38l-4.21-10.222h-3.336v6.093c0 1.015.27 1.354 1.28 1.354.674 0 1.28-.034 1.887-.102v2.878c-.707.101-2.156.237-3.032.237-3.638 0-4.009-1.524-4.009-3.86v-6.6H5.56v-2.877h2.425v-4.063h3.84v4.063h6.536l3.2 9.173 3.538-9.173h7.276v1.895h.034c.707-1.083 2.526-2.234 4.783-2.234 1.988 0 5.02.846 5.02 4.705v8.7h-3.84v.034z"
        fill="#058" fill-rule="nonzero"></path>
</svg>