<svg height="24" viewBox="0 0 24 24" width="24" xmlns="http://www.w3.org/2000/svg">
    <path
        fill="#058"
        d="m10.33 2c4.611-.018 8.367 3.718 8.395 8.35.002 1.726-.511 3.332-1.395 4.67l5.67 5.672-2.288 2.308-5.66-5.662c-1.337.916-2.95 1.454-4.69 1.462-4.612 0-8.352-3.751-8.362-8.384-.009-4.632 3.718-8.398 8.33-8.416zm.033 2.888c-3.022-.002-5.477 2.454-5.488 5.492-.011 3.039 2.426 5.513 5.448 5.533 2.95.019 5.371-2.305 5.514-5.24l.006-.221c.019-3.059-2.437-5.548-5.48-5.564z"></path>
</svg>